<?xml version="1.0" encoding="UTF-8"?>
<svg width="26px" height="27px" viewBox="0 0 26 27" version="1.1" xmlns="http://www.w3.org/2000/svg" xmlns:xlink="http://www.w3.org/1999/xlink">
    <!-- Generator: Sketch 52.6 (67491) - http://www.bohemiancoding.com/sketch -->
    <title>Shape</title>
    <desc>Created with Sketch.</desc>
    <g id="Symbols" stroke="none" stroke-width="1" fill="none" fill-rule="evenodd">
        <g id="branchs-menu" fill="#FFFFFF" fill-rule="nonzero">
            <g id="Shape">
                <path d="M20.0579509,8.85843555 L20.0579509,5.60920012 C20.8783352,5.20304569 21.5619887,4.39073684 21.5619887,3.44304317 L21.5619887,3.30765836 C21.5619887,1.95381027 20.4681431,0.870731793 19.100836,0.870731793 L18.9641053,0.870731793 C17.5967982,0.870731793 16.5029526,1.95381027 16.5029526,3.30765836 L16.5029526,3.44304317 C16.5029526,4.39073684 17.0498754,5.20304569 18.0069903,5.60920012 L18.0069903,8.85843555 C16.776414,8.99382035 15.5458376,9.53535959 14.5887227,10.3476684 L5.56449601,3.44304317 C5.97468813,1.95381027 5.01757319,0.329192556 3.51353541,0.0584229368 C2.00949763,-0.212346682 0.505459858,0.464577365 0.0952677378,1.95381027 C-0.314924383,3.44304317 0.642190565,5.06766088 2.14622834,5.47381531 C2.82988188,5.60920012 3.65026612,5.60920012 4.33391965,5.20304569 L13.0846849,11.9722862 C11.4439164,14.4092127 11.4439164,17.5230633 13.2214156,19.9599899 L10.4868015,22.6676861 C10.21334,22.6676861 10.0766093,22.5323013 9.80314793,22.5323013 C8.57257156,22.5323013 7.47872591,23.6153798 7.47872591,24.8338431 C7.47872591,26.0523063 8.57257156,27 9.80314793,27 C11.0337243,27 12.1275699,25.9169215 12.1275699,24.6984582 C12.1275699,24.4276886 12.1275699,24.2923038 11.9908392,24.0215342 L14.5887227,21.4492228 C17.7335289,23.7507646 22.2456423,23.2092253 24.5700643,20.0953747 C26.8944863,16.9815241 26.3475635,12.5138254 23.2027572,10.2122836 C22.382373,9.53535959 21.2885273,8.99382035 20.0579509,8.85843555 M18.9641053,19.4184507 C16.9131447,19.4184507 15.2723762,17.793833 15.2723762,15.7630608 C15.2723762,13.7322887 16.9131447,12.107671 18.9641053,12.107671 C21.0150659,12.107671 22.6558344,13.7322887 22.6558344,15.7630608 C22.6558344,17.793833 21.0150659,19.4184507 18.9641053,19.4184507"></path>
            </g>
        </g>
    </g>
</svg>