<?xml version="1.0" encoding="UTF-8"?>
<svg width="26px" height="26px" viewBox="0 0 26 26" version="1.1" xmlns="http://www.w3.org/2000/svg" xmlns:xlink="http://www.w3.org/1999/xlink">
    <!-- Generator: Sketch 52.6 (67491) - http://www.bohemiancoding.com/sketch -->
    <title>Shape</title>
    <desc>Created with Sketch.</desc>
    <g id="Symbols" stroke="none" stroke-width="1" fill="none" fill-rule="evenodd">
        <g id="teachers-menu" transform="translate(0.000000, -1.000000)" fill="#FFFFFF" fill-rule="nonzero">
            <g id="Shape">
                <path d="M23.4634146,20.5 C24.864332,20.5 26,19.3359403 26,17.9 L26,3.6 C26,2.16405965 24.864332,1 23.4634146,1 L10.0956098,1 C10.5395122,1.793 10.7804878,2.69 10.7804878,3.6 L23.4634146,3.6 L23.4634146,17.9 L12.0487805,17.9 L12.0487805,20.5 L23.4634146,20.5 Z M17.1219512,7.5 L17.1219512,10.1 L9.51219512,10.1 L9.51219512,27 L6.97560976,27 L6.97560976,19.2 L4.43902439,19.2 L4.43902439,27 L1.90243902,27 L1.90243902,16.6 L0,16.6 L0,10.1 C-2.81617548e-16,8.66405965 1.13566795,7.5 2.53658537,7.5 L17.1219512,7.5 Z M8.24390244,3.6 C8.24390244,5.03594035 7.10823449,6.2 5.70731707,6.2 C4.30639966,6.2 3.17073171,5.03594035 3.17073171,3.6 C3.17073171,2.16405965 4.30639966,1 5.70731707,1 C7.10823449,1 8.24390244,2.16405965 8.24390244,3.6 Z"></path>
            </g>
        </g>
    </g>
</svg>