<?xml version="1.0" encoding="UTF-8"?>
<svg width="25px" height="22px" viewBox="0 0 25 22" version="1.1" xmlns="http://www.w3.org/2000/svg" xmlns:xlink="http://www.w3.org/1999/xlink">
    <!-- Generator: Sketch 52.6 (67491) - http://www.bohemiancoding.com/sketch -->
    <title>Shape</title>
    <desc>Created with Sketch.</desc>
    <g id="Symbols" stroke="none" stroke-width="1" fill="none" fill-rule="evenodd">
        <g id="variables-menu" fill="#FFFFFF" fill-rule="nonzero">
            <g id="Shape">
                <path d="M22.9057002,0 C24.6256572,3.31222222 25.3062157,7.13777778 24.873133,11 C24.6256572,14.8622222 23.2645402,18.6877778 20.9506412,22 L19.0574512,20.7777778 C21.0496316,17.8077778 22.2127679,14.4222222 22.3983748,11 C22.8190837,7.57777778 22.2622631,4.19222222 20.7897819,1.22222222 L22.9057002,0 Z M4.04804246,0 L5.94123251,1.22222222 C3.94905213,4.19222222 2.78591576,7.57777778 2.60030889,11 C2.17959999,14.4222222 2.74879438,17.8077778 4.20890174,20.7777778 L2.11773103,22 C0.385400266,18.6877778 -0.30753204,14.8744444 0.125550651,11 C0.373026475,7.13777778 1.73414351,3.31222222 4.04804246,0 Z M12.5983322,9.38666667 L15.4690517,5.43888889 L18.5996209,5.43888889 L13.9223278,11.55 L16.6445619,17.5633333 L13.8480851,17.5633333 L12.1405019,13.4444444 L9.13367064,17.5144444 L6.01547526,17.5144444 L10.8412538,11.2566667 L8.2056363,5.43888889 L11.0144869,5.43888889 L12.5983322,9.38666667 Z"></path>
            </g>
        </g>
    </g>
</svg>